<svg width="923" height="605" viewBox="0 0 923 605" fill="none" xmlns="http://www.w3.org/2000/svg">
<path d="M243.973 217C252.973 217 260.639 220.167 266.973 226.5C273.306 232.833 276.473 240.5 276.473 249.5C276.473 258.5 273.306 266.167 266.973 272.5C260.639 278.833 252.973 282 243.973 282C235.306 282 227.806 278.833 221.473 272.5C215.139 266.167 211.973 258.5 211.973 249.5C211.973 240.5 215.139 232.833 221.473 226.5C227.806 220.167 235.306 217 243.973 217ZM413.973 223V441C413.973 482.333 401.139 514.5 375.473 537.5C349.806 560.833 315.306 572.5 271.973 572.5H222.473C176.473 572.5 140.639 559.667 114.973 534C91.9727 511 80.4727 480 80.4727 441V351.5L111.473 326.5H141.473V435.5C141.473 466.833 149.473 489 165.473 502C181.473 515 208.806 521.5 247.473 521.5C284.806 521.5 311.306 515.5 326.973 503.5C344.306 490.167 352.973 467.5 352.973 435.5V223H413.973ZM624.293 121L521.293 150L511.793 138V126L624.293 95V121ZM518.816 220C530.15 218 543.316 217 558.316 217C596.65 217 627.65 229.333 651.316 254C672.316 276.333 682.816 304 682.816 337V385C682.816 392.667 682.65 398.333 682.316 402H695.316V453H688.816L672.316 432.5H670.816C668.15 435.5 665.316 438.333 662.316 441C652.316 449 641.15 453 628.816 453H468.316V402H609.316C617.65 402 621.816 397.833 621.816 389.5V343C621.816 320 614.816 301.5 600.816 287.5C587.816 274.5 568.983 267.5 544.316 266.5C532.983 266.5 524.483 267.167 518.816 268.5V220ZM857.691 121L754.691 150L745.191 138V126L857.691 95V121ZM842.434 223V398C842.434 411 838.1 423 829.434 434C818.434 446.667 804.767 453 788.434 453H691.934V402H768.934C772.6 402 775.767 400.667 778.434 398C780.767 395.667 781.934 392.833 781.934 389.5V223H842.434ZM800.934 489.5C809.934 489.5 817.6 492.667 823.934 499C830.267 505.333 833.434 513 833.434 522C833.434 531 830.267 538.667 823.934 545C817.6 551.333 809.934 554.5 800.934 554.5C791.934 554.5 784.267 551.333 777.934 545C771.934 538.667 768.934 531 768.934 522C768.934 513 771.934 505.333 777.934 499C784.267 492.667 791.934 489.5 800.934 489.5Z" fill="#10B981"/>
<path d="M447.47 545.21C446.023 545.21 444.623 545.163 443.27 545.07C441.917 544.977 440.657 544.93 439.49 544.93C438.977 544.93 438.207 544.953 437.18 545C436.153 545 435.127 545 434.1 545C433.073 545.047 432.233 545.07 431.58 545.07C431.533 544.603 431.533 544.137 431.58 543.67C433.167 543.53 434.31 543.39 435.01 543.25C435.71 543.063 436.13 542.713 436.27 542.2C436.457 541.687 436.55 540.823 436.55 539.61V502.02C436.55 500.62 436.457 499.617 436.27 499.01C436.083 498.403 435.64 498.007 434.94 497.82C434.287 497.587 433.167 497.423 431.58 497.33C431.533 496.863 431.533 496.397 431.58 495.93C432.7 495.93 434.03 495.953 435.57 496C437.157 496.047 438.51 496.07 439.63 496.07C440.377 496.07 441.24 496.07 442.22 496.07C443.247 496.023 444.227 496 445.16 496C446.14 495.953 446.933 495.93 447.54 495.93C452.347 495.93 455.94 496.863 458.32 498.73C460.747 500.55 461.96 503.233 461.96 506.78C461.96 509.907 461.097 512.38 459.37 514.2C457.69 516.02 455.59 517.467 453.07 518.54V518.68C455.03 518.96 456.897 519.66 458.67 520.78C460.443 521.9 461.89 523.37 463.01 525.19C464.13 527.01 464.69 529.18 464.69 531.7C464.69 534.827 463.803 537.487 462.03 539.68C460.257 541.873 458.063 543.39 455.45 544.23C454.423 544.557 453.187 544.813 451.74 545C450.34 545.14 448.917 545.21 447.47 545.21ZM445.79 520.29C445.323 520.29 444.763 520.313 444.11 520.36C443.457 520.36 442.78 520.383 442.08 520.43V542.69C443.06 542.83 444.063 542.947 445.09 543.04C446.117 543.087 446.98 543.11 447.68 543.11C454.96 543.11 458.6 539.47 458.6 532.19C458.6 524.257 454.33 520.29 445.79 520.29ZM442.08 518.19C442.453 518.237 442.827 518.26 443.2 518.26C443.62 518.26 443.947 518.26 444.18 518.26C448.1 518.26 451.04 517.467 453 515.88C455.007 514.293 456.01 511.68 456.01 508.04C456.01 504.633 455.147 502.113 453.42 500.48C451.74 498.847 449.29 498.03 446.07 498.03C445.417 498.03 444.763 498.053 444.11 498.1C443.503 498.147 442.827 498.217 442.08 498.31V518.19ZM485.275 545.07C485.228 544.603 485.228 544.137 485.275 543.67C486.815 543.53 487.958 543.367 488.705 543.18C489.498 542.947 490.128 542.457 490.595 541.71C491.062 540.917 491.598 539.657 492.205 537.93L507.745 496.07C508.118 495.93 508.562 495.837 509.075 495.79C509.635 495.697 510.078 495.65 510.405 495.65L526.085 538.35C526.692 539.983 527.182 541.15 527.555 541.85C527.975 542.55 528.558 542.993 529.305 543.18C530.052 543.367 531.218 543.53 532.805 543.67C532.852 544.137 532.852 544.603 532.805 545.07C531.592 545.07 530.215 545.047 528.675 545C527.182 544.953 525.805 544.93 524.545 544.93C523.238 544.93 522.002 544.953 520.835 545C519.715 545.047 518.502 545.07 517.195 545.07C517.148 544.603 517.148 544.137 517.195 543.67C518.828 543.53 519.902 543.39 520.415 543.25C520.975 543.063 521.255 542.643 521.255 541.99C521.255 541.757 521.208 541.477 521.115 541.15C521.022 540.777 520.882 540.333 520.695 539.82L515.865 526.31H499.205L494.655 539.05C494.188 540.31 493.955 541.22 493.955 541.78C493.955 542.527 494.305 542.993 495.005 543.18C495.705 543.367 496.848 543.53 498.435 543.67C498.482 544.137 498.482 544.603 498.435 545.07C497.268 545.07 496.125 545.047 495.005 545C493.932 544.953 492.812 544.93 491.645 544.93C490.712 544.93 489.662 544.953 488.495 545C487.375 545.047 486.302 545.07 485.275 545.07ZM499.975 524.14H515.025L507.465 503.07L499.975 524.14ZM564.731 496.07C565.618 496.07 566.668 496.07 567.881 496.07C569.141 496.023 570.401 496 571.661 496C572.921 495.953 573.971 495.93 574.811 495.93C584.471 495.93 591.891 498.007 597.071 502.16C602.298 506.313 604.911 512.38 604.911 520.36C604.911 524.7 604.164 528.457 602.671 531.63C601.178 534.757 599.101 537.347 596.441 539.4C593.781 541.407 590.654 542.9 587.061 543.88C583.514 544.813 579.664 545.28 575.511 545.28C573.738 545.28 571.801 545.21 569.701 545.07C567.648 544.977 565.921 544.93 564.521 544.93C563.914 544.93 563.098 544.953 562.071 545C561.091 545 560.088 545 559.061 545C558.081 545.047 557.241 545.07 556.541 545.07C556.494 544.603 556.494 544.137 556.541 543.67C558.128 543.53 559.271 543.39 559.971 543.25C560.671 543.11 561.091 542.783 561.231 542.27C561.418 541.71 561.511 540.823 561.511 539.61V502.02C561.511 500.62 561.394 499.617 561.161 499.01C560.974 498.403 560.531 498.007 559.831 497.82C559.131 497.587 557.988 497.423 556.401 497.33C556.354 496.863 556.354 496.397 556.401 495.93C557.568 495.93 558.921 495.953 560.461 496C562.001 496.047 563.424 496.07 564.731 496.07ZM567.111 498.31V542.34C568.604 542.62 570.098 542.83 571.591 542.97C573.131 543.11 574.601 543.18 576.001 543.18C583.608 543.18 589.324 541.243 593.151 537.37C596.978 533.497 598.891 528.177 598.891 521.41C598.891 514.177 596.744 508.483 592.451 504.33C588.158 500.13 581.904 498.03 573.691 498.03C572.431 498.03 571.148 498.077 569.841 498.17C568.581 498.217 567.671 498.263 567.111 498.31ZM624.113 545.07C624.066 544.603 624.066 544.137 624.113 543.67C625.653 543.53 626.796 543.367 627.543 543.18C628.336 542.947 628.966 542.457 629.433 541.71C629.899 540.917 630.436 539.657 631.043 537.93L646.583 496.07C646.956 495.93 647.399 495.837 647.913 495.79C648.473 495.697 648.916 495.65 649.243 495.65L664.923 538.35C665.529 539.983 666.019 541.15 666.393 541.85C666.813 542.55 667.396 542.993 668.143 543.18C668.889 543.367 670.056 543.53 671.643 543.67C671.689 544.137 671.689 544.603 671.643 545.07C670.429 545.07 669.053 545.047 667.513 545C666.019 544.953 664.643 544.93 663.383 544.93C662.076 544.93 660.839 544.953 659.673 545C658.553 545.047 657.339 545.07 656.033 545.07C655.986 544.603 655.986 544.137 656.033 543.67C657.666 543.53 658.739 543.39 659.253 543.25C659.813 543.063 660.093 542.643 660.093 541.99C660.093 541.757 660.046 541.477 659.953 541.15C659.859 540.777 659.719 540.333 659.533 539.82L654.703 526.31H638.043L633.493 539.05C633.026 540.31 632.793 541.22 632.793 541.78C632.793 542.527 633.143 542.993 633.843 543.18C634.543 543.367 635.686 543.53 637.273 543.67C637.319 544.137 637.319 544.603 637.273 545.07C636.106 545.07 634.963 545.047 633.843 545C632.769 544.953 631.649 544.93 630.483 544.93C629.549 544.93 628.499 544.953 627.333 545C626.213 545.047 625.139 545.07 624.113 545.07ZM638.813 524.14H653.863L646.303 503.07L638.813 524.14ZM735.489 545.35L702.239 502.3V537.72C702.239 539.027 702.262 540.03 702.309 540.73C702.402 541.383 702.612 541.897 702.939 542.27C703.312 542.597 703.849 542.9 704.549 543.18C705.249 543.413 706.252 543.577 707.559 543.67C707.605 544.137 707.605 544.603 707.559 545.07C706.532 545.07 705.389 545.047 704.129 545C702.915 544.953 701.889 544.93 701.049 544.93C700.209 544.93 699.159 544.953 697.899 545C696.685 545.047 695.589 545.07 694.609 545.07C694.562 544.603 694.562 544.137 694.609 543.67C696.242 543.483 697.409 543.273 698.109 543.04C698.809 542.807 699.229 542.363 699.369 541.71C699.555 541.01 699.649 539.89 699.649 538.35V503.56C699.649 501.74 699.555 500.433 699.369 499.64C699.182 498.8 698.692 498.24 697.899 497.96C697.152 497.68 695.915 497.447 694.189 497.26C694.142 496.84 694.142 496.397 694.189 495.93C695.262 495.93 696.382 495.953 697.549 496C698.762 496.047 699.952 496.07 701.119 496.07C701.259 496.07 701.702 496.07 702.449 496.07C703.242 496.07 703.942 496.047 704.549 496L735.769 536.53V503.35C735.769 502.09 735.745 501.11 735.699 500.41C735.652 499.663 735.442 499.127 735.069 498.8C734.369 498.007 732.642 497.517 729.889 497.33C729.842 496.863 729.842 496.42 729.889 496C730.869 496 732.082 496.023 733.529 496.07C734.975 496.07 736.119 496.07 736.959 496.07C737.799 496.07 738.825 496.07 740.039 496.07C741.299 496.023 742.442 496 743.469 496C743.515 496.42 743.515 496.863 743.469 497.33C741.835 497.517 740.645 497.75 739.899 498.03C739.199 498.263 738.755 498.73 738.569 499.43C738.429 500.083 738.359 501.18 738.359 502.72V545.07C738.032 545.163 737.565 545.233 736.959 545.28C736.399 545.327 735.909 545.35 735.489 545.35Z" fill="#4F4F4F"/>
</svg>
