<svg width="923" height="776" viewBox="0 0 923 776" fill="none" xmlns="http://www.w3.org/2000/svg">
<path d="M429.14 761.81C427.927 762.23 426.527 762.533 424.94 762.72C423.4 762.907 421.253 763 418.5 763H406.95C407.557 762.86 408.21 762.347 408.91 761.46C409.61 760.527 409.96 758.753 409.96 756.14V721.49C409.96 719.063 409.633 717.407 408.98 716.52C408.327 715.587 407.673 715.027 407.02 714.84H418.5C421.487 714.84 423.75 714.98 425.29 715.26C426.877 715.493 428.253 715.867 429.42 716.38C431.473 717.36 433.06 718.737 434.18 720.51C435.3 722.283 435.86 724.197 435.86 726.25C435.86 729.377 434.903 732.083 432.99 734.37C431.123 736.61 428.65 738.057 425.57 738.71C427.67 738.943 429.653 739.55 431.52 740.53C433.433 741.51 434.973 742.84 436.14 744.52C437.353 746.2 437.96 748.113 437.96 750.26C437.96 753.247 437.167 755.697 435.58 757.61C433.993 759.477 431.847 760.877 429.14 761.81ZM427.18 719.74C426.247 719.04 425.243 718.527 424.17 718.2C423.097 717.827 421.65 717.64 419.83 717.64H415V737.52H420.67C422.35 737.52 423.75 737.263 424.87 736.75C425.99 736.237 426.97 735.56 427.81 734.72C428.697 733.833 429.397 732.76 429.91 731.5C430.423 730.24 430.68 728.957 430.68 727.65C430.68 726.063 430.377 724.57 429.77 723.17C429.21 721.77 428.347 720.627 427.18 719.74ZM428.65 742.35C427.763 741.65 426.667 741.137 425.36 740.81C424.053 740.483 422.28 740.32 420.04 740.32H415V760.2H421.65C425.01 760.2 427.623 759.407 429.49 757.82C431.403 756.233 432.36 753.713 432.36 750.26C432.36 747.04 431.123 744.403 428.65 742.35ZM464.196 744.31L459.716 755.44C459.016 757.167 458.666 758.59 458.666 759.71C458.666 761.25 459.366 762.347 460.766 763H450.756C451.222 763 451.899 762.533 452.786 761.6C453.672 760.667 454.699 758.823 455.866 756.07L474.136 712.6L492.266 756.28C493.292 758.8 494.272 760.527 495.206 761.46C496.186 762.393 496.956 762.907 497.516 763H485.896C487.062 762.44 487.646 761.577 487.646 760.41C487.646 759.43 487.272 758.03 486.526 756.21L481.626 744.31H464.196ZM480.506 741.44L472.876 722.75L465.386 741.44H480.506ZM541.929 759.08C537.542 761.693 531.686 763 524.359 763H510.569C510.569 763.14 510.849 763.023 511.409 762.65C511.969 762.23 512.459 761.483 512.879 760.41C513.346 759.337 513.579 757.773 513.579 755.72V721.28C513.579 719.46 513.346 718.083 512.879 717.15C512.459 716.17 511.969 715.517 511.409 715.19C510.849 714.863 510.569 714.747 510.569 714.84H524.289C531.429 714.84 537.076 716.007 541.229 718.34C544.916 720.393 547.762 723.17 549.769 726.67C551.776 730.17 552.779 734.113 552.779 738.5C552.779 743.26 551.822 747.39 549.909 750.89C548.042 754.343 545.382 757.073 541.929 759.08ZM539.199 721.49C537.146 720.137 534.952 719.157 532.619 718.55C530.286 717.943 527.509 717.64 524.289 717.64H518.619V760.2H524.289C528.116 760.2 531.242 759.873 533.669 759.22C536.142 758.567 538.266 757.563 540.039 756.21C542.326 754.437 544.076 752.127 545.289 749.28C546.549 746.387 547.179 743.027 547.179 739.2C547.179 735.14 546.456 731.593 545.009 728.56C543.609 725.48 541.672 723.123 539.199 721.49ZM578.479 744.31L573.999 755.44C573.299 757.167 572.949 758.59 572.949 759.71C572.949 761.25 573.649 762.347 575.049 763H565.039C565.506 763 566.182 762.533 567.069 761.6C567.956 760.667 568.982 758.823 570.149 756.07L588.419 712.6L606.549 756.28C607.576 758.8 608.556 760.527 609.489 761.46C610.469 762.393 611.239 762.907 611.799 763H600.179C601.346 762.44 601.929 761.577 601.929 760.41C601.929 759.43 601.556 758.03 600.809 756.21L595.909 744.31H578.479ZM594.789 741.44L587.159 722.75L579.669 741.44H594.789ZM669.932 714.84C669.279 714.98 668.626 715.517 667.972 716.45C667.366 717.337 667.062 718.923 667.062 721.21V764.96L631.222 723.17V756.7C631.222 758.94 631.619 760.527 632.412 761.46C633.206 762.347 633.976 762.86 634.722 763H624.852C625.506 762.86 626.159 762.347 626.812 761.46C627.512 760.527 627.862 758.917 627.862 756.63V721.63C627.862 720.043 627.326 718.597 626.252 717.29C625.179 715.983 623.826 715.167 622.192 714.84H630.872L663.702 753.13V721.21C663.702 717.617 662.489 715.493 660.062 714.84H669.932Z" fill="#4F4F4F"/>
<path d="M378.98 634.867C378.98 656.514 376.295 674.825 370.924 689.799C365.39 705.261 356.438 719.421 344.068 732.279C331.861 745.3 316.806 755.717 298.902 763.529C281.161 771.342 261.061 775.248 238.6 775.248C221.347 775.248 204.99 771.749 189.527 764.75C174.065 757.751 161.37 747.253 151.441 733.256C141.676 719.258 136.793 701.68 136.793 680.521C136.793 669.779 138.339 658.549 141.432 646.83C144.687 635.111 148.43 624.125 152.662 613.871C157.057 603.454 160.963 595.072 164.381 588.725C167.962 582.214 170.077 578.959 170.729 578.959C172.031 578.959 173.414 579.447 174.879 580.424C176.507 581.238 177.32 582.458 177.32 584.086C177.32 584.737 175.693 588.399 172.438 595.072C169.182 601.583 165.927 609.965 162.672 620.219C159.417 630.31 157.789 641.215 157.789 652.934C157.789 667.582 162.102 679.87 170.729 689.799C179.355 699.727 190.341 707.133 203.688 712.016C217.034 717.061 230.706 719.584 244.703 719.584C256.585 719.584 269.199 717.956 282.545 714.701C295.891 711.446 308.342 707.214 319.898 702.006C331.454 696.96 340.488 691.508 346.998 685.648C352.044 681.091 355.543 675.801 357.496 669.779C359.612 663.757 360.67 658.223 360.67 653.178C360.67 645.04 359.124 636.007 356.031 626.078C353.102 616.15 349.439 606.303 345.045 596.537C340.65 586.609 336.337 577.901 332.105 570.414C327.223 561.788 322.665 554.057 318.434 547.221C314.202 540.385 312.086 534.932 312.086 530.863C312.086 528.585 312.981 525.085 314.771 520.365C316.562 515.482 318.678 510.355 321.119 504.984C323.561 499.613 325.839 494.893 327.955 490.824C330.071 486.755 331.536 484.395 332.35 483.744C338.697 493.835 344.638 505.554 350.172 518.9C355.868 532.247 360.833 546 365.064 560.16C369.459 574.32 372.877 587.911 375.318 600.932C377.76 613.952 378.98 625.264 378.98 634.867ZM279.859 472.025C279.859 473.002 278.639 475.606 276.197 479.838C273.919 483.907 271.152 488.464 267.896 493.51C264.641 498.555 261.467 502.95 258.375 506.693C255.445 510.274 253.411 512.064 252.271 512.064C251.62 512.064 249.423 510.844 245.68 508.402C241.936 505.961 237.704 503.113 232.984 499.857C228.264 496.439 224.114 493.266 220.533 490.336C217.115 487.406 215.406 485.535 215.406 484.721C215.406 483.581 216.627 480.896 219.068 476.664C221.51 472.432 224.439 467.875 227.857 462.992C231.275 457.947 234.368 453.552 237.135 449.809C240.064 446.065 241.936 444.193 242.75 444.193C243.889 444.193 246.412 445.495 250.318 448.1C254.225 450.541 258.456 453.552 263.014 457.133C267.571 460.551 271.477 463.725 274.732 466.654C278.15 469.421 279.859 471.212 279.859 472.025ZM576.246 299.674C576.246 300.488 575.514 302.929 574.049 306.998C572.747 310.904 571.201 314.892 569.41 318.961C567.62 323.03 565.992 325.797 564.527 327.262C562.9 328.889 560.784 330.436 558.18 331.9C555.576 333.365 552.646 334.993 549.391 336.783L475.416 375.846C469.719 378.775 465.732 380.973 463.453 382.438C461.174 383.902 459.14 384.635 457.35 384.635C455.396 384.635 454.42 383.495 454.42 381.217C454.42 379.915 454.99 377.392 456.129 373.648C457.268 369.905 458.57 366.243 460.035 362.662C461.5 359.081 462.802 356.64 463.941 355.338C464.918 354.524 466.22 353.548 467.848 352.408C469.475 351.269 471.998 349.804 475.416 348.014L551.344 307.73C555.413 305.615 559.645 303.255 564.039 300.65C568.596 297.883 571.526 296.5 572.828 296.5C575.107 296.5 576.246 297.558 576.246 299.674ZM703.443 644.877C703.443 650.248 702.467 655.945 700.514 661.967C698.561 667.989 693.189 671 684.4 671H671.705C656.731 671 644.85 667.989 636.061 661.967C627.434 655.945 620.273 647.156 614.576 635.6C608.88 623.881 603.183 609.558 597.486 592.631C592.604 602.722 587.314 612.081 581.617 620.707C576.083 629.171 569.654 636.251 562.33 641.947C541.66 657.735 515.455 665.629 483.717 665.629C474.602 665.629 465.813 664.49 457.35 662.211C449.049 659.77 442.213 656.026 436.842 650.98C431.633 645.935 429.029 639.424 429.029 631.449C429.029 629.822 429.762 626.322 431.227 620.951C432.854 615.417 434.807 609.395 437.086 602.885C439.365 596.374 441.562 590.84 443.678 586.283C445.956 581.563 447.747 579.203 449.049 579.203C450.676 579.203 451.897 580.831 452.711 584.086C453.688 587.341 454.664 589.945 455.641 591.898C456.78 594.503 458.733 597.514 461.5 600.932C464.43 604.187 468.906 607.117 474.928 609.721C481.113 612.162 489.739 613.383 500.807 613.383C515.618 613.383 529.697 612.162 543.043 609.721C556.389 607.117 567.294 601.745 575.758 593.607C584.221 585.469 588.453 573.1 588.453 556.498C586.988 542.012 584.71 528.34 581.617 515.482C578.525 502.462 575.595 490.661 572.828 480.082C570.224 469.503 568.922 460.388 568.922 452.738C568.922 450.622 569.898 447.123 571.852 442.24C573.805 437.195 576.165 431.905 578.932 426.371C581.699 420.837 584.14 416.117 586.256 412.211C588.535 408.305 589.918 406.352 590.406 406.352C591.708 406.352 592.848 406.921 593.824 408.061C594.964 409.037 595.615 411.56 595.777 415.629C598.382 432.556 601.23 450.541 604.322 469.584C607.415 488.627 610.67 507.019 614.088 524.76C617.506 542.501 621.005 558.044 624.586 571.391C628.167 584.737 631.666 594.34 635.084 600.199C638.827 606.547 644.117 611.348 650.953 614.604C657.789 617.696 664.706 619.242 671.705 619.242H684.4C693.189 619.242 698.561 622.172 700.514 628.031C702.467 633.891 703.443 639.506 703.443 644.877ZM798.414 319.674C798.414 320.488 797.682 322.929 796.217 326.998C794.915 330.904 793.368 334.892 791.578 338.961C789.788 343.03 788.16 345.797 786.695 347.262C785.068 348.889 782.952 350.436 780.348 351.9C777.743 353.365 774.814 354.993 771.559 356.783L697.584 395.846C691.887 398.775 687.9 400.973 685.621 402.438C683.342 403.902 681.308 404.635 679.518 404.635C677.564 404.635 676.588 403.495 676.588 401.217C676.588 399.915 677.158 397.392 678.297 393.648C679.436 389.905 680.738 386.243 682.203 382.662C683.668 379.081 684.97 376.64 686.109 375.338C687.086 374.524 688.388 373.548 690.016 372.408C691.643 371.269 694.166 369.804 697.584 368.014L773.512 327.73C777.581 325.615 781.812 323.255 786.207 320.65C790.764 317.883 793.694 316.5 794.996 316.5C797.275 316.5 798.414 317.558 798.414 319.674ZM777.906 569.926C777.906 604.431 769.605 629.903 753.004 646.342C736.402 662.781 714.999 671 688.795 671H675.855C668.206 671 663.242 668.64 660.963 663.92C658.521 659.2 657.301 652.852 657.301 644.877C657.301 636.739 658.603 630.473 661.207 626.078C663.811 621.521 668.694 619.242 675.855 619.242H688.795C698.886 619.242 709.059 618.51 719.312 617.045C729.566 615.417 737.46 613.139 742.994 610.209C747.877 607.93 751.376 605.326 753.492 602.396C755.771 599.467 756.91 597.188 756.91 595.561C756.91 593.119 755.445 589.62 752.516 585.062C749.749 580.505 746.493 575.704 742.75 570.658C739.169 565.45 735.914 560.73 732.984 556.498C730.217 552.104 728.834 549.011 728.834 547.221C728.834 545.593 729.892 542.501 732.008 537.943C734.124 533.386 736.728 528.34 739.82 522.807C743.076 517.11 746.168 511.82 749.098 506.938C752.19 501.892 754.632 498.23 756.422 495.951C762.444 507.507 767.49 519.633 771.559 532.328C775.79 545.023 777.906 557.556 777.906 569.926ZM759.107 730.57C759.107 731.547 757.887 734.07 755.445 738.139C753.167 742.37 750.318 747.009 746.9 752.055C743.645 757.1 740.553 761.413 737.623 764.994C734.693 768.738 732.577 770.609 731.275 770.609C730.787 770.609 728.59 769.389 724.684 766.947C720.94 764.506 716.708 761.576 711.988 758.158C707.268 754.903 703.199 751.811 699.781 748.881C696.363 745.951 694.654 743.998 694.654 743.021C694.654 742.045 695.875 739.441 698.316 735.209C700.758 730.977 703.606 726.339 706.861 721.293C710.279 716.247 713.453 711.853 716.383 708.109C719.312 704.529 721.184 702.738 721.998 702.738C722.975 702.738 725.416 703.959 729.322 706.4C733.229 709.005 737.46 712.016 742.018 715.434C746.575 718.852 750.562 722.025 753.98 724.955C757.398 727.885 759.107 729.757 759.107 730.57Z" fill="#10B981"/>
</svg>
