<svg width="180" height="70" viewBox="0 0 180 70" fill="none" xmlns="http://www.w3.org/2000/svg">
<path d="M44.4907 24.2563C45.7021 24.2563 46.7833 24.4994 47.7342 24.9857C48.6633 25.4419 49.4405 26.1572 49.972 27.0454C50.5126 27.9212 50.7832 29.2551 50.7832 30.3908C50.7836 31.0483 50.651 31.6991 50.3934 32.3041C50.1544 32.9057 49.8028 33.4561 49.3574 33.9258C48.9367 34.3746 48.4292 34.7331 47.8656 34.9797C48.6476 35.2167 49.3731 35.6107 49.9976 36.1377C50.622 36.6646 51.1324 37.3135 51.4975 38.0445C51.8755 38.7767 52.0704 39.5896 52.0654 40.4136C52.0654 41.6893 51.7574 42.474 51.1407 43.4288C50.5368 44.3572 49.6898 45.1021 48.6919 45.5826C47.6686 46.0689 46.5484 46.3169 45.4154 46.3077H35.071V24.2563H44.4907ZM44.3615 34.1527C44.9818 34.1597 45.5922 33.9971 46.1268 33.6825C46.6597 33.3762 47.1017 32.934 47.4076 32.401C47.7204 31.853 47.8826 31.2321 47.8778 30.6012C47.8778 29.9551 47.7213 29.0347 47.4076 28.5049C47.1017 27.9719 46.6597 27.5296 46.1268 27.2234C45.5967 26.91 44.991 26.7474 44.3751 26.7532H37.9721V34.1527H44.3615ZM45.1878 43.8208C45.8799 43.8293 46.5622 43.656 47.1664 43.3183C47.7598 42.9842 48.2527 42.4971 48.5936 41.9076C48.9396 41.3132 49.1126 40.9743 49.1126 40.242C49.1178 39.5559 48.9386 38.881 48.5936 38.2879C48.2521 37.7086 47.766 37.2279 47.1829 36.893C46.5874 36.5467 45.9096 36.3674 45.2208 36.3739H37.9699V43.8208H45.1878ZM63.0911 46.7808C61.1997 46.7808 59.5997 46.4563 58.2911 45.8073C56.9936 45.1482 56.0261 44.2942 55.3886 43.2451C54.7656 42.2481 54.4341 41.0967 54.4317 39.9211H57.3033C57.3019 40.7057 57.5459 41.471 58.0011 42.11C58.4654 42.7801 59.1354 43.3152 60.0113 43.7153C60.8871 44.1154 61.9087 44.3155 63.076 44.3155C64.968 44.3155 66.4112 43.9694 67.4058 43.2774C68.4108 42.5862 68.9134 41.5647 68.9134 40.2126C68.9134 39.0127 68.4159 38.1156 67.4208 37.5211C66.4268 36.9152 65.0053 36.4718 63.1564 36.1909C61.6421 35.9425 60.302 35.6074 59.1361 35.1858C58.0143 34.7836 57.0031 34.1224 56.1848 33.256C55.3956 32.4017 55.001 31.2827 55.001 29.8991C55.001 28.7423 55.2766 27.7044 55.828 26.7855C56.3904 25.8666 57.266 25.1369 58.4548 24.5966C59.6442 24.0452 61.1578 23.7695 62.9956 23.7695C64.6818 23.7695 66.1195 24.0344 67.3088 24.5643C68.5092 25.0941 69.4118 25.8292 70.0168 26.7697C70.6333 27.7102 70.9415 28.8021 70.9415 30.0455H68.0548C68.067 29.3495 67.857 28.6677 67.4553 28.0993C67.0657 27.5249 66.4873 27.0817 65.7201 26.7697C64.9634 26.4557 64.0445 26.299 62.9633 26.2995C61.1255 26.2995 59.8172 26.64 59.0385 27.321C58.2598 28.0021 57.8707 28.8669 57.8712 29.9156C57.8712 31.0288 58.3792 31.8774 59.3953 32.4613C60.4114 33.0452 61.9628 33.4776 64.0495 33.7586C66.331 34.1261 68.1959 34.7857 69.6442 35.7371C71.0925 36.6886 71.8169 38.1804 71.8173 40.2126C71.8173 41.5752 71.466 42.7535 70.7634 43.7476C70.0714 44.7316 69.0663 45.483 67.7482 46.0018C66.4383 46.5211 64.8859 46.7808 63.0911 46.7808V46.7808ZM75.0874 24.2563H89.7472V26.7532H77.9576V34.1563H88.2066V36.3775H77.9576V46.3077H75.086L75.0874 24.2563Z" fill="black"/>
<path d="M18.0172 22.038L6.53058 28.6514V41.8847L18.0172 48.4981L29.5038 41.8847V28.6514L18.0172 22.038ZM9.05763 40.4367V31.4929C10.5037 32.4264 11.7675 33.6155 12.7872 35.0021C13.9064 36.5307 14.7936 38.2164 15.4198 40.0045C15.9752 41.5554 16.3749 43.1578 16.6129 44.7879L9.05763 40.4367ZM16.7544 37.392C16.3703 36.0933 15.5698 34.5204 14.8433 33.5368C13.6274 31.8768 12.1141 30.4569 10.38 29.3492L16.7544 25.6728V37.392ZM19.2785 25.6728L25.6522 29.3492C23.9185 30.4571 22.4054 31.877 21.1896 33.5368C20.4624 34.5232 19.6619 36.0933 19.2785 37.392V25.6728ZM26.9767 40.4367L19.4221 44.7879C19.6593 43.1578 20.0585 41.5554 20.6139 40.0045C21.2406 38.2165 22.128 36.5309 23.2472 35.0021C24.2677 33.615 25.5328 32.4258 26.9803 31.4929L26.9767 40.4367Z" fill="black"/>
<path d="M102.555 43.4981H96.5961V31.0312H102.032C104.296 31.0312 105.827 32.3237 105.827 34.4046C105.827 35.5046 105.112 36.5313 104.25 36.898C105.506 37.3013 106.542 38.4747 106.542 39.8772C106.542 42.3431 104.562 43.4981 102.555 43.4981ZM98.897 32.9929V36.238H101.922C102.839 36.238 103.526 35.5321 103.526 34.6063C103.526 33.6896 102.839 32.9929 101.931 32.9929H98.897ZM98.897 37.9522V41.5272H102.353C103.416 41.5272 104.205 40.7756 104.205 39.703C104.205 38.7405 103.416 37.9522 102.371 37.9522H98.897ZM112.675 43.7823C110.154 43.7823 108.238 42.4623 108.238 39.1072V34.0746H110.438V39.043C110.438 40.7847 111.19 41.7197 112.666 41.7197C114.151 41.7197 114.884 40.7664 114.884 39.043V34.0746H117.093V39.1072C117.093 42.4623 115.168 43.7823 112.675 43.7823ZM122.887 43.7823C120.118 43.7823 118.835 42.1597 118.835 40.5006L120.962 40.5097C120.998 41.3714 121.64 42.0222 122.905 42.0222C124.051 42.0222 124.583 41.5456 124.583 40.8306C124.583 40.033 123.877 39.8039 122.593 39.6114C120.778 39.373 119.22 38.6488 119.22 36.6963C119.22 34.9638 120.467 33.7904 122.767 33.7904C125.041 33.7904 126.572 35.0188 126.572 36.8155L124.399 36.7971C124.353 36.1005 123.803 35.6055 122.777 35.6055C121.823 35.6055 121.402 36.0821 121.402 36.6505C121.402 37.3563 121.75 37.5855 123.372 37.8422C125.325 38.1355 126.847 38.7038 126.847 40.7022C126.847 42.7739 125.16 43.7823 122.887 43.7823ZM129.771 32.6079C128.918 32.6079 128.405 32.0396 128.405 31.3337C128.405 30.6462 128.909 30.0687 129.78 30.0687C130.669 30.0687 131.173 30.6462 131.173 31.3337C131.173 32.0487 130.669 32.6079 129.771 32.6079ZM130.898 43.4981H128.68V34.0746H130.898V43.4981ZM135.72 43.4981H133.502V34.0746H135.61V35.5413C136.151 34.5146 137.379 33.7904 138.828 33.7904C141.358 33.7904 142.614 35.4588 142.614 38.4197V43.4981H140.395V38.4655C140.395 36.5955 139.552 35.8346 138.214 35.8346C136.912 35.8346 135.72 36.843 135.72 38.6855V43.4981ZM154.109 38.6213C154.109 38.8597 154.1 39.0247 154.063 39.373H146.702C146.931 40.9131 148.013 41.8022 149.315 41.8022C150.433 41.8022 151.121 41.3347 151.441 40.5372H153.861C153.385 42.2331 151.707 43.7823 149.36 43.7823C146.528 43.7823 144.475 41.5364 144.475 38.7864C144.475 36.0363 146.528 33.7904 149.36 33.7904C152.202 33.7904 154.109 36.0271 154.109 38.6213ZM146.794 37.6588H151.845C151.753 36.6046 150.653 35.7246 149.351 35.7246C148.233 35.7246 147.17 36.3296 146.794 37.6588ZM159.316 43.7823C156.547 43.7823 155.264 42.1597 155.264 40.5006L157.391 40.5097C157.427 41.3714 158.069 42.0222 159.334 42.0222C160.48 42.0222 161.012 41.5456 161.012 40.8306C161.012 40.033 160.306 39.8039 159.022 39.6114C157.207 39.373 155.649 38.6488 155.649 36.6963C155.649 34.9638 156.896 33.7904 159.197 33.7904C161.47 33.7904 163.001 35.0188 163.001 36.8155L160.828 36.7971C160.782 36.1005 160.232 35.6055 159.206 35.6055C158.252 35.6055 157.831 36.0821 157.831 36.6505C157.831 37.3563 158.179 37.5855 159.802 37.8422C161.754 38.1355 163.276 38.7038 163.276 40.7022C163.276 42.7739 161.589 43.7823 159.316 43.7823ZM168.501 43.7823C165.732 43.7823 164.449 42.1597 164.449 40.5006L166.576 40.5097C166.612 41.3714 167.254 42.0222 168.519 42.0222C169.665 42.0222 170.197 41.5456 170.197 40.8306C170.197 40.033 169.491 39.8039 168.208 39.6114C166.392 39.373 164.834 38.6488 164.834 36.6963C164.834 34.9638 166.081 33.7904 168.382 33.7904C170.655 33.7904 172.186 35.0188 172.186 36.8155L170.013 36.7971C169.968 36.1005 169.418 35.6055 168.391 35.6055C167.437 35.6055 167.016 36.0821 167.016 36.6505C167.016 37.3563 167.364 37.5855 168.987 37.8422C170.939 38.1355 172.461 38.7038 172.461 40.7022C172.461 42.7739 170.774 43.7823 168.501 43.7823Z" fill="black"/>
</svg>
