<svg width="434" height="124" viewBox="0 0 434 124" fill="none" xmlns="http://www.w3.org/2000/svg">
<g clip-path="url(#clip0_1_17982)">
<path d="M295.882 12.4165C295.882 19.2379 302.003 24.8331 309.7 24.8331C317.397 24.8331 323.693 19.2379 323.693 12.4165C323.693 5.59523 317.397 0 309.7 0C302.003 0 295.882 5.59523 295.882 12.4165Z" fill="#FFFFFF"/>
<path d="M361.117 78.0035C361.117 64.7306 370.741 55.1068 384.004 55.1068C397.268 55.1068 407.076 64.9544 407.076 78.0035C407.076 91.0525 397.375 100.725 384.004 100.725C370.634 100.725 361.117 91.1693 361.117 78.0035ZM288 33.7476V48.9959H296.223V122.269H323.352V33.7379H288V33.7476ZM348.827 45.2398C339.593 53.7834 334.513 65.4215 334.513 78.0132C334.513 90.6049 339.593 102.243 348.827 110.787C358.052 119.321 370.605 124.021 384.189 124.021C397.773 124.021 410.336 119.321 419.561 110.787C428.795 102.243 433.875 90.6049 433.875 78.0132C433.875 65.4215 428.786 53.7834 419.561 45.2398C410.336 36.7058 397.773 31.9961 384.189 31.9961C370.605 31.9961 358.052 36.6961 348.827 45.2398Z" fill="#FFFFFF"/>
<path d="M13.0304 41.6369C13.8381 41.6369 14.4997 41.3936 15.0155 40.9168C15.5312 40.4303 15.7939 39.7686 15.7939 38.9317C15.7939 38.0949 15.5312 37.4235 15.0155 36.9466C14.5095 36.4698 13.8089 36.2266 12.9428 36.2266C12.0768 36.2266 11.4248 36.4698 10.9091 36.9466C10.4031 37.4332 10.1403 38.0949 10.1403 38.9317C10.1403 39.7686 10.4031 40.4303 10.9285 40.9168C11.454 41.4034 12.1643 41.6369 13.0304 41.6369Z" fill="#FFFFFF"/>
<path d="M81.4574 59.9902C80.6108 59.9902 79.9394 60.2335 79.4236 60.7103C78.9176 61.1969 78.6549 61.8586 78.6549 62.6954C78.6549 63.5323 78.9176 64.2037 79.4431 64.6805C79.9686 65.1573 80.6692 65.4006 81.545 65.4006C82.3526 65.4006 83.0143 65.1573 83.53 64.6805C84.0458 64.194 84.3085 63.5323 84.3085 62.6954C84.3085 61.8586 84.0458 61.1969 83.53 60.7103C83.0143 60.2238 82.3234 59.9902 81.4574 59.9902Z" fill="#FFFFFF"/>
<path d="M107.974 63.5918C107.127 63.5918 106.456 63.8351 105.94 64.3119C105.425 64.7984 105.172 65.4601 105.172 66.297C105.172 67.1338 105.434 67.8052 105.96 68.2821C106.485 68.7589 107.186 69.0021 108.062 69.0021C108.869 69.0021 109.531 68.7589 110.047 68.2821C110.562 67.7955 110.825 67.1338 110.825 66.297C110.825 65.4601 110.562 64.7984 110.047 64.3119C109.531 63.8253 108.84 63.5918 107.974 63.5918Z" fill="#FFFFFF"/>
<path d="M115.447 63.5918C114.601 63.5918 113.929 63.8351 113.413 64.3119C112.907 64.7984 112.645 65.4601 112.645 66.297C112.645 67.1338 112.907 67.8052 113.433 68.2821C113.958 68.7589 114.659 69.0021 115.535 69.0021C116.342 69.0021 117.004 68.7589 117.52 68.2821C118.036 67.7955 118.298 67.1338 118.298 66.297C118.298 65.4601 118.036 64.7984 117.52 64.3119C117.014 63.8253 116.313 63.5918 115.447 63.5918Z" fill="#FFFFFF"/>
<path d="M130.297 27.9572C131.104 27.9572 131.766 27.7139 132.282 27.2371C132.798 26.7506 133.06 26.0889 133.06 25.252C133.06 24.4152 132.798 23.7438 132.282 23.267C131.776 22.7901 131.075 22.5469 130.209 22.5469C129.343 22.5469 128.691 22.7901 128.175 23.267C127.669 23.7535 127.407 24.4152 127.407 25.252C127.407 26.0889 127.669 26.7506 128.195 27.2371C128.72 27.7237 129.421 27.9572 130.297 27.9572Z" fill="#FFFFFF"/>
<path d="M135.152 33.7758C133.75 32.7638 132.116 32.2578 130.247 32.2578C128.846 32.2578 127.474 32.6179 126.141 33.3282C124.798 34.0483 123.689 35.1576 122.803 36.6464C121.918 38.145 121.48 39.9646 121.48 42.1054C121.48 45.0052 122.375 47.2433 124.185 48.8294C125.995 50.4155 128.943 51.2037 133.06 51.2037C133.439 51.2037 134.023 51.1745 134.831 51.1162C134.675 52.5466 133.984 53.5197 132.758 54.0257C131.522 54.5414 129.78 54.8041 127.503 54.8041H119.573C117.889 54.8041 116.605 54.4246 115.719 53.6851C114.834 52.9358 114.396 51.6806 114.396 49.8998V44.1975H109.861V50.1723C109.861 53.2569 108.275 54.7944 105.093 54.7944H96.7344C94.0584 54.7944 92.083 54.5317 90.8083 54.0062C89.5336 53.4808 88.7356 52.3714 88.4243 50.688C89.9812 50.3085 91.5479 50.1431 93.1437 50.1723V44.577C90.964 44.5479 88.8524 44.2462 86.8089 43.6915C84.7655 43.1272 82.2744 42.3098 79.3162 41.2102C77.01 40.3441 75.1027 39.6922 73.5945 39.2737C72.0862 38.8553 70.6752 38.6412 69.3713 38.6412C68.0674 38.6412 66.9678 39.2446 66.0823 40.4414C65.187 41.6383 64.6518 43.4969 64.4669 46.0269L66.9483 46.4454C67.3181 45.1706 67.6781 44.3532 68.0187 43.9932C68.369 43.6332 68.8458 43.458 69.4686 43.458C70.6849 43.458 71.9694 43.6623 73.322 44.0613C74.6843 44.47 76.4748 45.1025 78.7226 45.9783C80.6785 46.7568 82.3911 47.3795 83.8605 47.8466C82.6149 48.3137 80.7466 49.1408 78.2653 50.3182C75.2098 51.8168 72.5922 52.9358 70.393 53.6851C68.1938 54.4246 65.8293 54.8041 63.2798 54.8041H35.5858H38.6024H27.772C27.3341 51.447 26.2832 47.6131 24.59 43.312L20.6295 45.083C22.5271 50.2209 23.4807 54.2981 23.4807 57.3244C23.4807 63.017 20.25 65.8584 13.8082 65.8584C10.4511 65.8584 8.06704 65.187 6.6658 63.8538C5.26456 62.5207 4.56395 60.6913 4.56395 58.3948C4.56395 56.4681 5.05049 53.8992 6.01384 50.6977L1.90743 49.4814C0.661882 53.0623 0.0391083 56.3124 0.0391083 59.2414C0.0391083 62.8515 1.11923 65.7513 3.28921 67.9213C5.44945 70.101 9.01094 71.1909 13.9639 71.1909C18.479 71.1909 21.8459 70.2178 24.0645 68.2522C26.2929 66.2865 27.5774 63.6106 27.9179 60.2242H38.6121H35.5956H63.2895C65.2454 60.2242 67.1235 59.981 68.9334 59.4944C70.7433 59.0176 72.3781 58.4143 73.8377 57.7039C75.3071 56.9839 77.0781 56.0594 79.1702 54.9015C81.8462 53.4029 83.9286 52.3423 85.4272 51.7195C85.8942 54.736 87.1009 56.906 89.047 58.2294C90.9932 59.5528 93.5719 60.2145 96.7733 60.2145H105.132C106.971 60.2145 108.616 59.8447 110.085 59.1149C111.545 58.3851 112.654 57.1979 113.403 55.5437C113.9 57.159 114.698 58.3462 115.778 59.0857C116.867 59.835 118.142 60.2145 119.612 60.2145H127.542C131.376 60.2145 134.334 59.3679 136.436 57.665C138.538 55.9718 139.589 53.1791 139.589 49.2868V44.2949C139.589 41.9303 139.209 39.8381 138.441 38.0185C137.682 36.1988 136.602 34.7878 135.191 33.7758M134.957 46.2702C134.305 46.3967 133.605 46.4551 132.855 46.4551C130.423 46.4551 128.642 46.0367 127.503 45.1804C126.375 44.324 125.8 43.1466 125.8 41.6481C125.8 40.2468 126.229 39.0986 127.085 38.1936C127.941 37.2984 128.924 36.841 130.053 36.841C131.571 36.841 132.797 37.5125 133.712 38.8748C134.626 40.2274 135.054 42.2125 134.996 44.83L134.947 46.2799L134.957 46.2702Z" fill="#FFFFFF"/>
<path d="M170.008 43.0016C170.494 42.5345 170.728 41.8923 170.728 41.0846C170.728 40.3353 170.397 39.6736 169.745 39.0801C169.093 38.4865 168.022 37.8637 166.524 37.2117C168.139 36.6473 169.618 36.2289 170.961 35.9467V33.6113C168.256 34.0492 165.794 34.8861 163.585 36.1316V37.9999C165.327 38.8076 166.543 39.4401 167.225 39.8974C167.906 40.3451 168.246 40.6954 168.246 40.9386C168.246 41.0651 168.188 41.1527 168.081 41.2014C167.964 41.25 167.789 41.2695 167.536 41.2695H163.245V43.7022H168.1C168.879 43.7022 169.502 43.4687 169.988 43.0016" fill="#FFFFFF"/>
<path d="M235.681 40.1896C236.489 40.1896 237.15 39.9464 237.666 39.4696C238.172 38.983 238.435 38.3213 238.435 37.4845C238.435 36.6476 238.172 35.9762 237.666 35.4994C237.15 35.0226 236.46 34.7793 235.584 34.7793C234.708 34.7793 234.066 35.0226 233.55 35.4994C233.044 35.9859 232.781 36.6476 232.781 37.4845C232.781 38.3213 233.044 38.983 233.569 39.4696C234.095 39.9561 234.796 40.1896 235.671 40.1896" fill="#FFFFFF"/>
<path d="M250.901 63.6289C250.054 63.6289 249.383 63.8722 248.867 64.349C248.351 64.8355 248.098 65.4972 248.098 66.3341C248.098 67.1709 248.361 67.8424 248.886 68.3192C249.412 68.796 250.112 69.0392 250.988 69.0392C251.796 69.0392 252.458 68.796 252.973 68.3192C253.489 67.8326 253.752 67.1709 253.752 66.3341C253.752 65.4972 253.489 64.8355 252.973 64.349C252.458 63.8624 251.767 63.6289 250.901 63.6289Z" fill="#FFFFFF"/>
<path d="M249.08 42.1045C249.887 44.6248 250.296 46.9115 250.296 48.9647C250.296 52.8571 248.165 54.7935 243.893 54.7935H243.193C241.509 54.7935 240.215 54.4237 239.32 53.6745C238.424 52.9252 237.967 51.6699 237.967 49.8892V44.1966H233.433V50.1714C233.433 51.8159 233.014 53.003 232.177 53.7231C231.331 54.4432 230.173 54.7935 228.674 54.7935H187.26C185.615 54.7935 184.379 54.4627 183.572 53.8107C182.764 53.1587 182.355 52.0105 182.355 50.3562V29.8145H177.821V49.9475C177.821 53.1782 175.768 54.8032 171.661 54.8032H162.835C160.412 54.8032 158.69 54.3751 157.678 53.5188C156.676 52.6625 156.16 51.4656 156.16 49.8989C156.16 48.595 156.471 46.9699 157.094 45.0432L153.124 44.109C152.122 46.6975 151.625 49.0426 151.625 51.1639C151.625 53.8983 152.56 56.0974 154.428 57.7419C156.296 59.3865 159.4 60.2136 163.769 60.2136H169.793C174.337 60.2136 177.247 58.4718 178.531 54.9881C179.738 58.4718 182.657 60.2136 187.26 60.2136H228.723C230.562 60.2136 232.206 59.8438 233.647 59.114C235.096 58.3842 236.206 57.1873 236.984 55.5428C237.451 57.1581 238.23 58.3453 239.32 59.0945C240.41 59.8438 241.694 60.2136 243.193 60.2136H243.893C247.445 60.2136 250.16 59.3281 252.038 57.5765C253.916 55.8152 254.86 53.2755 254.86 49.9475C254.86 47.0478 254.334 43.9534 253.274 40.6546L249.07 42.1045H249.08Z" fill="#FFFFFF"/>
<path d="M0.000183105 88.4434H5.20618L15.2484 111.447L25.3879 88.4434H30.195L17.1946 118.064H13.0006L0.000183105 88.4434Z" fill="#FFFFFF"/>
<path d="M34.2528 88.0439C34.8366 87.4892 35.5859 87.207 36.5006 87.207C37.4153 87.207 38.1646 87.4795 38.7679 88.0244C39.3712 88.5693 39.6729 89.231 39.6729 90.029C39.6729 90.8853 39.3712 91.5956 38.7679 92.1698C38.1646 92.7439 37.4153 93.0358 36.5006 93.0358C35.5859 93.0358 34.8366 92.7536 34.2528 92.1989C33.6592 91.6443 33.3673 90.9534 33.3673 90.1263C33.3673 89.2992 33.6592 88.618 34.2528 88.0536M34.2041 95.8188H38.7484V118.083H34.2041V95.8188Z" fill="#FFFFFF"/>
<path d="M48.002 117.888C46.2699 117.392 44.8979 116.74 43.9053 115.951L45.4914 112.254C46.4645 112.964 47.6711 113.538 49.1308 113.995C50.5807 114.453 52.0598 114.677 53.5583 114.677C55.3196 114.677 56.6235 114.394 57.4604 113.84C58.2972 113.275 58.7156 112.536 58.7156 111.592C58.7156 110.706 58.2778 110.084 57.3922 109.694C56.5067 109.315 55.125 108.955 53.2469 108.634C51.4272 108.274 49.9384 107.914 48.7999 107.534C47.6517 107.155 46.6591 106.522 45.8223 105.646C44.9854 104.761 44.567 103.554 44.567 102.027C44.567 100.032 45.4136 98.3969 47.097 97.1417C48.7902 95.8766 51.1451 95.2441 54.1713 95.2441C55.6991 95.2441 57.2171 95.4388 58.7351 95.8183C60.2434 96.2075 61.4695 96.7135 62.4134 97.3557L60.8759 101.015C58.8519 99.8079 56.604 99.2046 54.1324 99.2046C52.4587 99.2046 51.2034 99.4868 50.3666 100.071C49.5297 100.645 49.1113 101.384 49.1113 102.299C49.1113 103.214 49.5687 103.905 50.4736 104.304C51.3883 104.703 52.7896 105.092 54.7065 105.471C56.5262 105.831 57.9956 106.191 59.1341 106.571C60.2628 106.96 61.2359 107.573 62.0436 108.42C62.8512 109.276 63.2599 110.444 63.2599 111.942C63.2599 113.937 62.3939 115.552 60.6618 116.788C58.9297 118.024 56.497 118.637 53.3831 118.637C51.5343 118.637 49.7438 118.394 48.002 117.888Z" fill="#FFFFFF"/>
<path d="M68.5439 88.0439C69.1278 87.4892 69.8771 87.207 70.7918 87.207C71.7065 87.207 72.4557 87.4795 73.059 88.0244C73.6624 88.5693 73.9543 89.231 73.9543 90.029C73.9543 90.8853 73.6526 91.5956 73.059 92.1698C72.4557 92.7439 71.6967 93.0358 70.7918 93.0358C69.8868 93.0358 69.1278 92.7536 68.5439 92.1989C67.9504 91.6443 67.6584 90.9534 67.6584 90.1263C67.6584 89.2992 67.9504 88.618 68.5439 88.0536M68.4953 95.8188H73.0396V118.083H68.4953V95.8188Z" fill="#FFFFFF"/>
<path d="M84.7172 117.053C82.8683 116.051 81.4087 114.669 80.3578 112.888C79.2971 111.107 78.7717 109.103 78.7717 106.865C78.7717 104.627 79.3069 102.68 80.3578 100.909C81.4185 99.1481 82.8683 97.7566 84.7172 96.7446C86.5661 95.7326 88.6387 95.2266 90.9352 95.2266C93.2317 95.2266 95.2946 95.7326 97.1532 96.7446C99.0021 97.7566 100.452 99.1481 101.493 100.909C102.534 102.671 103.05 104.656 103.05 106.865C103.05 109.074 102.534 111.107 101.493 112.888C100.452 114.659 99.0021 116.051 97.1532 117.053C95.3043 118.055 93.2317 118.551 90.9352 118.551C88.6387 118.551 86.5661 118.045 84.7172 117.053ZM84.2307 110.621C84.8534 111.769 85.7389 112.674 86.8969 113.326C88.0549 113.988 89.3977 114.318 90.9352 114.318C92.4727 114.318 93.7961 113.988 94.9443 113.326C96.0925 112.664 96.9683 111.759 97.5814 110.621C98.2041 109.473 98.5058 108.227 98.5058 106.874C98.5058 105.522 98.1944 104.247 97.5619 103.128C96.9294 102.009 96.0342 101.123 94.8957 100.462C93.7474 99.8001 92.424 99.4692 90.9352 99.4692C89.4464 99.4692 88.0646 99.8001 86.9164 100.462C85.7681 101.123 84.8826 102.009 84.2501 103.128C83.6176 104.247 83.3062 105.493 83.3062 106.874C83.3062 108.256 83.6176 109.482 84.2307 110.621Z" fill="#FFFFFF"/>
<path d="M108.129 95.8008H112.674V99.2358C113.491 97.9708 114.62 96.9977 116.04 96.3068C117.461 95.6159 119.086 95.2656 120.906 95.2656C123.728 95.2656 125.976 96.1025 127.679 97.7567C129.362 99.411 130.209 101.853 130.209 105.055V118.055H125.752V106.067C125.752 103.897 125.246 102.252 124.234 101.133C123.222 100.014 121.762 99.4596 119.845 99.4596C117.704 99.4596 116.002 100.112 114.727 101.425C113.462 102.729 112.839 104.568 112.839 106.952V118.055H108.12V95.7911L108.129 95.8008Z" fill="#FFFFFF"/>
<path d="M144.406 88.4433H157.669C161.075 88.4433 163.722 89.1245 165.609 90.4673C167.487 91.8199 168.431 93.6882 168.431 96.0626C168.431 97.6487 168.042 99.011 167.264 100.14C166.485 101.269 165.386 102.135 163.984 102.718C165.892 103.215 167.361 104.091 168.383 105.336C169.414 106.582 169.93 108.177 169.93 110.114C169.93 112.673 168.967 114.629 167.04 116.001C165.113 117.363 162.291 118.054 158.555 118.054H144.406V88.4336V88.4433ZM157.494 101.317C159.605 101.317 161.211 100.918 162.301 100.111C163.391 99.3029 163.926 98.2034 163.926 96.8216C163.926 95.4398 163.381 94.311 162.301 93.5131C161.211 92.7152 159.605 92.3259 157.494 92.3259H148.94V101.317H157.494ZM158.555 114.142C160.87 114.142 162.603 113.743 163.731 112.926C164.86 112.118 165.425 110.96 165.425 109.472C165.425 107.983 164.85 106.825 163.712 106.007C162.564 105.2 160.851 104.801 158.555 104.801H148.94V114.142H158.555Z" fill="#FFFFFF"/>
<path d="M178.609 116.985C176.906 115.973 175.593 114.581 174.668 112.8C173.744 111.029 173.277 109.044 173.277 106.874C173.277 104.704 173.734 102.719 174.668 100.948C175.593 99.1676 176.906 97.7761 178.609 96.7543C180.312 95.7423 182.278 95.2363 184.516 95.2363C186.131 95.2363 187.591 95.538 188.875 96.1413C190.169 96.7446 191.259 97.6009 192.135 98.72V95.8104H196.679V118.075H192.135V115.165C190.315 117.403 187.776 118.512 184.506 118.512C182.268 118.512 180.302 118.006 178.599 116.985M178.648 110.485C179.212 111.604 180.04 112.509 181.159 113.219C182.278 113.929 183.621 114.28 185.168 114.28C186.929 114.28 188.418 113.861 189.624 113.024C190.831 112.187 191.658 111.029 192.135 109.56V104.179C191.658 102.71 190.831 101.561 189.624 100.725C188.418 99.8877 186.929 99.4692 185.168 99.4692C183.611 99.4692 182.268 99.8195 181.159 100.53C180.04 101.24 179.212 102.145 178.648 103.264C178.084 104.383 177.811 105.58 177.811 106.874C177.811 108.169 178.084 109.375 178.648 110.485Z" fill="#FFFFFF"/>
<path d="M203.384 95.8008H207.928V99.2358C208.746 97.9708 209.874 96.9977 211.295 96.3068C212.716 95.6159 214.341 95.2656 216.161 95.2656C218.983 95.2656 221.23 96.1025 222.933 97.7567C224.617 99.411 225.463 101.853 225.463 105.055V118.055H221.007V106.067C221.007 103.897 220.501 102.252 219.489 101.133C218.477 100.014 217.017 99.4596 215.1 99.4596C212.959 99.4596 211.256 100.112 209.981 101.425C208.716 102.729 208.094 104.568 208.094 106.952V118.055H203.374V95.7911L203.384 95.8008Z" fill="#FFFFFF"/>
<path d="M232.13 88.3945H236.674V106.212L247.952 95.7997H253.469L244.653 104.353L255.493 118.064H249.937L241.296 107.263L236.674 111.622V118.064H232.13V88.3945Z" fill="#FFFFFF"/>
</g>
<defs>
<clipPath id="clip0_1_17982">
<rect width="433.878" height="124" fill="white"/>
</clipPath>
</defs>
</svg>
